<svg xmlns="http://www.w3.org/2000/svg" viewBox="0 0 99.99 75.74"><defs><style>.cls-1{fill:#cfde00;}</style></defs><title>log-fernando</title><g id="Layer_2" data-name="Layer 2"><g id="Layer_1-2" data-name="Layer 1"><path class="cls-1" d="M18.78,17.88A55.77,55.77,0,0,1,26.7,19a47.54,47.54,0,0,0,6.68.5h.67a54.16,54.16,0,0,0,12.49-1.87c.56-.15,1-.27,1.39-.35a41.59,41.59,0,0,1,5.56-1,9,9,0,0,1,5.23,1.53,7.44,7.44,0,0,1,2.51,8.86c-.42,1.24-.9,2.49-1.44,3.7-.56,1.43-1.15,2.9-1.77,4.45h.55c.71,0,1.47,0,2.23,0h.25l1.59,0a8.72,8.72,0,0,0,3.64-.58l.09,0s.11-.08.22-.36l0-.12.72-1.64L70,26l1.27-3.05L73,18.78l.06-.11a5.32,5.32,0,0,1,2.59-2.48,37.88,37.88,0,0,0-63.76,2.59,12.18,12.18,0,0,1,4.94-.94C17.17,17.83,18.26,17.85,18.78,17.88Z"/><path class="cls-1" d="M72.07,47.27c1.5-1.35,3.09-2.82,4.23-3.89l6.17-6.18a37.76,37.76,0,0,0-1.77-10.82l-.38.85-1.13,2.7L74.82,40.3C73.89,42.38,73,44.66,72.07,47.27Z"/><path class="cls-1" d="M82,52.44a7.84,7.84,0,0,0-6.76,3.36c-1.3,1.73-5.3,5-8,5.25a7,7,0,0,1-6.4-4.33l0-.12,0-.1a11.48,11.48,0,0,1-.1-6.17,30.9,30.9,0,0,1,1.57-5.46H57.79c-2.35,0-3.75.21-4.15.63-.15.28-.3.63-.46,1l0,.11-.31.7-.54,1.32-.75,1.88L49,56.62,48.42,58A5,5,0,0,1,43.8,61a5.14,5.14,0,0,1-4.3-2.34,4.92,4.92,0,0,1-.58-4v-.16l2.64-6.29C43.71,42.92,46,37.51,48,32.74l2.12-5.34a66.81,66.81,0,0,1-7.24,1.79,71.91,71.91,0,0,1-9.08.75,17.13,17.13,0,0,0-1.35,2.4c-.61,1.27-1.23,2.65-1.87,4.18a5,5,0,0,1,3.84,4.55,5,5,0,0,1-3.64,5.18,13,13,0,0,1-2.26.5l-.41.06c-.53.1-1.07.18-1.62.25-.71,1.9-1.52,4-2.44,6.09l-.36.88a26.62,26.62,0,0,1-2.34,4.74,12.23,12.23,0,0,1-4.91,4.36A37.86,37.86,0,0,0,69,66.84a9.17,9.17,0,0,1,1.52-1,4.82,4.82,0,0,1,5.1.21,15.48,15.48,0,0,1,1.28,1h0A8.17,8.17,0,1,0,82,52.44Z"/><path class="cls-1" d="M19.13,37.4l1.1-2.92.31-.75c.6-1.49,1.23-3,2-4.54l.3-.67c-1.67-.27-3.33-.47-4.66-.58A4.89,4.89,0,0,1,18,31.5a5,5,0,0,1-4.61,3.13,4.87,4.87,0,0,1-2.09-.47,8,8,0,0,1-3.87-3.61A38.12,38.12,0,0,0,7,42a4.91,4.91,0,0,1,.06.5.93.93,0,0,1-.77.89l-.37,0a6.64,6.64,0,1,0,6.77,9.43,5.37,5.37,0,0,0,.49-.74,40.36,40.36,0,0,0,1.72-3.78l.47-1.13-.25,0-.3-.08-.07,0a5.17,5.17,0,0,1-4-2.92,5.25,5.25,0,0,1,1.16-5.88A4.55,4.55,0,0,1,15.27,37a5,5,0,0,1,.61,0H16l1.46.25C18,37.36,18.56,37.39,19.13,37.4Z"/><circle class="cls-1" cx="96.11" cy="54.44" r="3.88"/></g></g></svg>